<svg id="Layer_1" enable-background="new 0 0 512 512" height="512" viewBox="0 0 512 512" width="512" xmlns="http://www.w3.org/2000/svg"><path d="m7.982 141.396v-125.405c0-4.423 3.585-8.008 8.008-8.008h125.405c4.423 0 8.008 3.585 8.008 8.008s-3.585 8.008-8.008 8.008h-117.397v117.397c0 4.423-3.585 8.008-8.008 8.008s-8.008-3.586-8.008-8.008zm133.414 346.606h-117.398v-117.398c0-4.423-3.585-8.008-8.008-8.008s-8.008 3.585-8.008 8.008v125.406c0 4.423 3.585 8.008 8.008 8.008h125.405c4.423 0 8.008-3.585 8.008-8.008s-3.585-8.008-8.007-8.008zm354.614-480.019h-125.406c-4.423 0-8.008 3.585-8.008 8.008s3.585 8.008 8.008 8.008h117.397v117.397c0 4.423 3.585 8.008 8.008 8.008s8.008-3.585 8.008-8.008v-125.405c.001-4.423-3.584-8.008-8.007-8.008zm0 354.614c-4.423 0-8.008 3.585-8.008 8.008v117.397h-117.398c-4.423 0-8.008 3.585-8.008 8.008s3.585 8.008 8.008 8.008h125.406c4.423 0 8.008-3.585 8.008-8.008v-125.406c0-4.422-3.585-8.007-8.008-8.007zm-100.962-21.709-135.043 77.98c-1.239.716-2.622 1.073-4.005 1.073s-2.766-.357-4.005-1.073l-135.043-77.98c-2.477-1.431-4.003-4.074-4.003-6.935v-155.906c0-2.861 1.526-5.504 4.003-6.935l135.043-77.981c2.479-1.432 5.531-1.432 8.01 0l135.043 77.981c2.477 1.431 4.003 4.074 4.003 6.935v155.906c0 2.86-1.527 5.504-4.003 6.935zm-258.075-162.842 119.027 68.708 119.027-68.708-119.027-68.733zm-8.008 151.284 119.027 68.732v-137.438l-119.027-68.708zm254.07 0v-137.414l-119.027 68.708v137.439z"/></svg>