<svg id="Capa_1" enable-background="new 0 0 512 512" height="512" viewBox="0 0 512 512" width="512" xmlns="http://www.w3.org/2000/svg"><path d="m476.463 118.296c14.563-22.999 12.04-54.058-8.331-74.428-20.353-20.354-51.408-22.907-74.428-8.331-38.622-23.586-84.857-35.537-137.704-35.537-143.551 0-256 112.449-256 256s112.449 256 256 256 256-112.448 256-256c0-52.846-11.951-99.082-35.537-137.704zm-36.615-46.144c7.816 7.817 7.817 20.467 0 28.284-7.816 7.816-20.467 7.817-28.284 0-7.816-7.817-7.817-20.467 0-28.284 7.815-7.816 20.467-7.817 28.284 0zm-183.848 399.848c-121.122 0-216-94.879-216-216s94.878-216 216-216c43.439 0 81.284 9.169 112.788 27.271-4.889 14.674-3.96 30.87 2.757 44.901l-89.692 89.692c-7.834-3.756-16.601-5.864-25.853-5.864-33.084 0-60 26.916-60 60s26.916 60 60 60 60-26.916 60-60c0-9.252-2.108-18.019-5.864-25.852l89.692-89.692c14.007 6.705 30.201 7.654 44.901 2.757 18.102 31.503 27.271 69.348 27.271 112.787 0 121.121-94.878 216-216 216zm20-216c0 11.028-8.972 20-20 20s-20-8.972-20-20 8.972-20 20-20 20 8.972 20 20z"/></svg>