<?xml version="1.0" encoding="UTF-8"?>
<svg xmlns="http://www.w3.org/2000/svg" id="OBJECT" viewBox="0 0 512 512" width="512" height="512"><path d="M297.5,40h10a7.5,7.5,0,0,0,0-15h-10a7.5,7.5,0,0,0,0,15Z"/><path d="M337.5,40h10a7.5,7.5,0,0,0,0-15h-10a7.5,7.5,0,0,0,0,15Z"/><path d="M85,309H75V299a7.5,7.5,0,0,0-15,0v17.5a7.5,7.5,0,0,0,7.5,7.5H85a7.5,7.5,0,0,0,0-15Z"/><path d="M67.5,271.9a7.5,7.5,0,0,0,7.5-7.5V229.8a7.5,7.5,0,0,0-15,0v34.6A7.5,7.5,0,0,0,67.5,271.9Z"/><path d="M67.5,202.7a7.5,7.5,0,0,0,7.5-7.5V160.6a7.5,7.5,0,0,0-15,0v34.6A7.5,7.5,0,0,0,67.5,202.7Z"/><path d="M85,101H67.5a7.5,7.5,0,0,0-7.5,7.5V126a7.5,7.5,0,0,0,15,0V116H85a7.5,7.5,0,0,0,0-15Z"/><path d="M181.43,116h32.14a7.5,7.5,0,0,0,0-15H181.43a7.5,7.5,0,0,0,0,15Z"/><path d="M156.79,108.5a7.5,7.5,0,0,0-7.5-7.5H117.14a7.5,7.5,0,1,0,0,15h32.15A7.5,7.5,0,0,0,156.79,108.5Z"/><path d="M245.71,116h32.15a7.5,7.5,0,0,0,0-15H245.71a7.5,7.5,0,0,0,0,15Z"/><path d="M310,116h10v10a7.5,7.5,0,0,0,15,0V108.5a7.5,7.5,0,0,0-7.5-7.5H310a7.5,7.5,0,0,0,0,15Z"/><path d="M330.64,290.2a7.49,7.49,0,0,0-12.28,0l-37.85,54.06-30.37-34.7a7.49,7.49,0,0,0-11.28,0l-70,80A7.5,7.5,0,0,0,174.5,402h220a7.5,7.5,0,0,0,6.14-11.8ZM191,387l53.47-61.11,27.15,31L265,366.4A7.5,7.5,0,1,0,277.3,375l47.2-67.42L380.09,387Z"/><path d="M194.5,292A27.5,27.5,0,1,0,167,264.5,27.54,27.54,0,0,0,194.5,292Zm0-40A12.5,12.5,0,1,1,182,264.5,12.52,12.52,0,0,1,194.5,252Z"/><path d="M509.8,479.2,481.64,451l22.48-9.64a7.5,7.5,0,0,0-1.27-14.2l-60.85-14V224.5A27.54,27.54,0,0,0,414.5,197H395V7.5A7.5,7.5,0,0,0,387.5,0H7.5A7.5,7.5,0,0,0,0,7.5v360A7.5,7.5,0,0,0,7.5,375H127v39.5A27.54,27.54,0,0,0,154.5,442H413.15l14,60.85a7.5,7.5,0,0,0,14.2,1.27L451,481.64,479.2,509.8a7.48,7.48,0,0,0,10.6,0l20-20A7.49,7.49,0,0,0,509.8,479.2ZM380,15V50H15V15ZM127,224.5V309h-9.86a7.5,7.5,0,1,0,0,15H127v36H15V65H380V197H334.77a7.16,7.16,0,0,0,.23-1.8V160.6a7.5,7.5,0,0,0-15,0v34.6a7.16,7.16,0,0,0,.23,1.8H154.5A27.54,27.54,0,0,0,127,224.5ZM154.5,427A12.52,12.52,0,0,1,142,414.5v-190A12.52,12.52,0,0,1,154.5,212h260A12.52,12.52,0,0,1,427,224.5V409.69l-10.81-2.5a7.51,7.51,0,0,0-9,9l2.5,10.81Zm330,66.89L453.8,463.2a7.5,7.5,0,0,0-5.3-2.2,6.84,6.84,0,0,0-1.42.14,7.49,7.49,0,0,0-5.47,4.41l-5,11.57-12.14-52.61,52.61,12.14-11.57,5a7.49,7.49,0,0,0-2.35,12.19l30.69,30.7Z"/></svg>
