<svg height="512" viewBox="0 0 64 64" width="512" xmlns="http://www.w3.org/2000/svg"><g id="Logout"><path d="m58.7666 35.07764-9.60254 10c-2.71126 2.82591-7.11983-1.24833-4.32812-4.15528l5.68677-5.92236h-26.52271c-3.9632 0-3.97026-6 0-6h26.52271l-5.68677-5.92236c-2.74516-2.85847 1.57809-7.01989 4.32812-4.15528l9.60254 10a4.43178 4.43178 0 0 1 0 6.15528z"/><path d="m38 60h-28a6.00657 6.00657 0 0 1 -6-6v-44a6.00657 6.00657 0 0 1 6-6h28a6.00657 6.00657 0 0 1 6 6v4c0 3.964-6 3.969-6 0v-4h-28v44h28v-4c0-3.964 6-3.969 6 0v4a6.00657 6.00657 0 0 1 -6 6z"/></g></svg>