<svg id="Capa_1" enable-background="new 0 0 512.027 512.027" height="512" viewBox="0 0 512.027 512.027" width="512" xmlns="http://www.w3.org/2000/svg"><path d="m479.244 171.654c-19.366-9.866-41.435-8.235-58.712 2.363l-107.963-88.959c2.21-6.247 3.425-12.96 3.425-19.954 0-33.084-26.916-60-60-60s-60 26.916-60 60c0 6.995 1.215 13.709 3.426 19.957l-107.946 88.954c-4.012-2.461-8.338-4.472-12.928-5.963-31.536-10.247-65.356 6.98-75.604 38.522-10.224 31.465 7.057 65.381 38.521 75.605 6.138 1.995 12.369 2.942 18.499 2.942.153 0 .304-.008.457-.009l39.597 115.709c-3.729 3.108-7.14 6.717-10.121 10.82-19.491 26.826-13.558 64.315 13.274 83.808 26.828 19.493 64.315 13.557 83.808-13.273 3.484-4.796 6.139-9.942 8.019-15.267h121.965c1.91 5.38 4.599 10.52 8.049 15.268 19.39 26.688 56.97 32.773 83.808 13.273 26.765-19.446 32.72-57.042 13.274-83.808h-.001c-3.03-4.17-6.529-7.873-10.401-11.071l39.77-115.438c.16.001.32.014.48.014 21.81 0 42.89-11.92 53.524-32.791 15.055-29.549 3.331-65.645-26.22-80.702zm-223.25-126.551c11.028 0 20 8.972 20 20s-8.972 20-20 20-20-8.972-20-20 8.972-20 20-20zm-215.009 173.83c3.414-10.509 14.683-16.258 25.201-12.84 10.512 3.415 16.257 14.687 12.841 25.201-3.409 10.488-14.715 16.248-25.202 12.841-10.488-3.408-16.249-14.713-12.84-25.202zm113.633 239.73c-6.497 8.941-18.992 10.923-27.937 4.424-8.943-6.497-10.922-18.992-4.425-27.936 6.465-8.897 18.992-10.924 27.937-4.425 8.922 6.482 10.907 19.015 4.425 27.937zm162.364-31.756h-122.008c-3.901-11.079-11.069-21.129-21.269-28.541-10.908-7.925-23.616-11.629-36.16-11.427l-39.509-115.451c8.599-7.029 15.353-16.508 19.033-27.833 4.129-12.707 3.91-26.115-.487-38.499l107.973-88.977c9.149 5.652 19.918 8.924 31.44 8.924 11.523 0 22.293-3.272 31.443-8.926l107.99 88.98c-8.492 23.924-.835 50.478 18.443 66.283l-39.776 115.457c-12.803-.143-25.262 3.806-35.808 11.468-9.976 7.247-17.306 17.153-21.305 28.542zm68.325 36.18c-8.92 6.48-21.453 4.498-27.936-4.425-6.499-8.943-4.52-21.437 4.425-27.936 8.979-6.524 21.496-4.438 27.937 4.425h-.001c6.482 8.922 4.497 21.454-4.425 27.936zm84.518-228.893c-5.019 9.849-17.049 13.758-26.9 8.74-9.849-5.019-13.758-17.05-8.74-26.9 5.014-9.839 17.049-13.759 26.9-8.74 9.85 5.019 13.758 17.05 8.74 26.9z"/></svg>