<?xml version="1.0"?>
<svg xmlns="http://www.w3.org/2000/svg" viewBox="0 0 32 32"><g id="Layer_2" data-name="Layer 2"><path d="M11.002,29.33643A1.75147,1.75147,0,0,1,9.25,27.58594V26A1.25116,1.25116,0,0,0,8,24.75H5A2.75311,2.75311,0,0,1,2.25,22V6A2.75311,2.75311,0,0,1,5,3.25H27A2.75311,2.75311,0,0,1,29.75,6V22A2.75311,2.75311,0,0,1,27,24.75H16.82813a1.257,1.257,0,0,0-.88379.36621l-3.707,3.707A1.74608,1.74608,0,0,1,11.002,29.33643ZM5,4.75A1.25116,1.25116,0,0,0,3.75,6V22A1.25116,1.25116,0,0,0,5,23.25H8A2.75311,2.75311,0,0,1,10.75,26v1.58594a.25.25,0,0,0,.42676.17676l3.707-3.707A2.73172,2.73172,0,0,1,16.82813,23.25H27A1.25116,1.25116,0,0,0,28.25,22V6A1.25116,1.25116,0,0,0,27,4.75Z"/><circle cx="16" cy="19.49999" r="1"/><path d="M16,16.75a.7502.7502,0,0,1-.75-.75v-.42041a2.66776,2.66776,0,0,1,1.60938-2.49951A2.25019,2.25019,0,1,0,13.75,11a.75.75,0,0,1-1.5,0,3.7507,3.7507,0,1,1,5.18262,3.46631A1.19027,1.19027,0,0,0,16.75,15.57959V16A.7502.7502,0,0,1,16,16.75Z"/></g></svg>
