<?xml version="1.0" encoding="UTF-8" standalone="no"?>
<svg
   id="Layer_1"
   data-name="Layer 1"
   viewBox="0 0 18 18"
   version="1.1"
   sodipodi:docname="preferences.svg"
   inkscape:version="1.2.1 (9c6d41e410, 2022-07-14)"
   width="18"
   height="18"
   xmlns:inkscape="http://www.inkscape.org/namespaces/inkscape"
   xmlns:sodipodi="http://sodipodi.sourceforge.net/DTD/sodipodi-0.dtd"
   xmlns="http://www.w3.org/2000/svg"
   xmlns:svg="http://www.w3.org/2000/svg">
  <sodipodi:namedview
     id="namedview231"
     pagecolor="#ffffff"
     bordercolor="#666666"
     borderopacity="1.0"
     inkscape:showpageshadow="2"
     inkscape:pageopacity="0.0"
     inkscape:pagecheckerboard="true"
     inkscape:deskcolor="#d1d1d1"
     showgrid="false"
     inkscape:zoom="9.8333333"
     inkscape:cx="7.4237288"
     inkscape:cy="12"
     inkscape:current-layer="Layer_1" />
  <defs
     id="defs226">
    <style
       id="style224">
      .cls-1 {
        fill: #fff;
      }
    </style>
  </defs>
  <g
     id="g576"
     transform="scale(0.75062552)">
    <path
       class="cls-1"
       d="m 13.25,2 v 2.61 c 1.14,0.19 2.19,0.64 3.09,1.28 l 1.85,-1.85 1.77,1.77 -1.85,1.85 c 0.64,0.9 1.09,1.95 1.28,3.09 H 22 v 2.5 h -2.61 c -0.19,1.14 -0.64,2.19 -1.28,3.09 l 1.85,1.85 -1.77,1.77 -1.85,-1.85 c -0.9,0.64 -1.95,1.09 -3.09,1.28 V 22 h -2.5 V 19.39 C 9.61,19.2 8.56,18.75 7.66,18.11 L 5.81,19.96 4.04,18.19 5.89,16.34 C 5.25,15.44 4.8,14.39 4.61,13.25 H 2 v -2.5 H 4.61 C 4.8,9.61 5.25,8.56 5.89,7.66 L 4.04,5.81 5.81,4.04 7.66,5.89 C 8.56,5.25 9.61,4.8 10.75,4.61 V 2 h 2.5 M 12,17 c 2.76,0 5,-2.24 5,-5 0,-2.76 -2.24,-5 -5,-5 -2.76,0 -5,2.24 -5,5 0,2.76 2.24,5 5,5 M 15.25,0 H 8.75 V 3.08 C 8.49,3.17 8.24,3.28 7.99,3.39 L 7.23,2.63 5.82,1.22 4.41,2.63 2.64,4.4 1.23,5.81 2.64,7.22 3.4,7.98 C 3.28,8.23 3.18,8.48 3.09,8.74 H 0 v 6.5 h 3.08 c 0.09,0.26 0.2,0.51 0.31,0.76 l -0.76,0.76 -1.41,1.41 1.41,1.41 1.77,1.77 1.41,1.41 1.41,-1.41 0.76,-0.76 c 0.25,0.12 0.5,0.22 0.76,0.31 v 3.08 h 6.5 V 20.9 C 15.5,20.81 15.75,20.7 16,20.59 l 0.76,0.76 1.41,1.41 1.41,-1.41 1.77,-1.77 1.41,-1.41 L 21.35,16.76 20.59,16 c 0.12,-0.25 0.22,-0.5 0.31,-0.76 h 3.08 V 8.74 H 20.9 C 20.81,8.48 20.7,8.23 20.59,7.98 L 21.35,7.22 22.76,5.81 21.35,4.4 19.58,2.63 18.17,1.22 16.76,2.63 16,3.39 C 15.75,3.27 15.5,3.17 15.24,3.08 V 0 0 Z M 12,15 c -1.65,0 -3,-1.35 -3,-3 0,-1.65 1.35,-3 3,-3 1.65,0 3,1.35 3,3 0,1.65 -1.35,3 -3,3 z"
       id="path228"
       style="fill:black" />
  </g>
</svg>
